<svg xmlns="http://www.w3.org/2000/svg" xmlns:xlink="http://www.w3.org/1999/xlink" width="52" height="46" viewBox="0 0 52 46">
  <defs>
    <clipPath id="clip-left-arrow_1">
      <rect width="52" height="46"/>
    </clipPath>
  </defs>
  <g id="left-arrow_1" data-name="left-arrow – 1" clip-path="url(#clip-left-arrow_1)">
    <g id="left-arrow_1_" data-name="left-arrow (1)" transform="translate(0 -40.269)">
      <g id="Group_2" data-name="Group 2" transform="translate(0 41.674)">
        <path id="Path_2" data-name="Path 2" d="M49.077,59.192l.081.018h-34.8L25.3,48.247a2.873,2.873,0,0,0,0-4.039l-1.7-1.7a2.847,2.847,0,0,0-4.019,0L.829,61.252a2.867,2.867,0,0,0,0,4.033L19.58,84.036a2.85,2.85,0,0,0,4.019,0l1.7-1.7a2.817,2.817,0,0,0,.829-2.009,2.732,2.732,0,0,0-.829-1.971L14.239,67.329H49.116A2.947,2.947,0,0,0,52,64.412V62A2.89,2.89,0,0,0,49.077,59.192Z" transform="translate(0 -41.674)" fill="rgba(255,255,255,0.9)"/>
      </g>
    </g>
  </g>
</svg>
